<?xml version="1.0" standalone="no"?>
<!DOCTYPE svg PUBLIC "-//W3C//DTD SVG 20010904//EN"
 "http://www.w3.org/TR/2001/REC-SVG-20010904/DTD/svg10.dtd">
<svg version="1.0" xmlns="http://www.w3.org/2000/svg"
 width="137.000000pt" height="137.000000pt" viewBox="0 0 137.000000 137.000000"
 preserveAspectRatio="xMidYMid meet">
<metadata>
Created by potrace 1.14, written by Peter Selinger 2001-2017
</metadata>
<g transform="translate(0.000000,137.000000) scale(0.100000,-0.100000)"
fill="#000000" stroke="none">
<path d="M992 1228 c-7 -7 -12 -16 -12 -21 0 -17 -54 -52 -89 -57 -25 -4 -40
-13 -51 -32 -13 -25 -13 -30 3 -58 l18 -31 -43 -52 c-24 -28 -53 -63 -65 -77
-25 -27 -31 -46 -10 -34 6 5 45 32 86 61 47 34 81 51 90 47 54 -21 101 -2 101
42 0 33 26 72 61 90 40 20 37 49 -10 95 -40 41 -59 47 -79 27z"/>
<path d="M632 1051 c-89 -21 -164 -38 -165 -38 -1 -1 -39 -9 -84 -19 -46 -9
-83 -22 -84 -28 0 -6 -2 -20 -5 -31 -4 -20 -7 -41 -23 -170 -5 -38 -8 -137 -6
-220 2 -122 7 -163 24 -218 24 -73 68 -127 105 -127 26 0 86 49 69 56 -49 21
-91 80 -102 144 -9 51 -7 315 3 390 5 36 10 73 11 82 1 10 4 20 7 23 7 7 131
37 293 71 66 14 130 32 142 40 21 13 21 16 9 46 -8 18 -18 33 -23 34 -4 1 -81
-15 -171 -35z"/>
<path d="M921 896 c0 -28 -3 -71 -5 -96 -3 -25 -7 -88 -11 -140 -4 -52 -9 -98
-11 -102 -7 -11 14 -10 59 3 31 8 37 15 38 37 1 15 2 38 4 52 1 14 6 70 9 125
4 55 9 116 12 137 l5 36 -49 -1 -49 0 -2 -51z"/>
<path d="M995 550 c-44 -17 -89 -32 -100 -34 -11 -3 -48 -16 -82 -30 -35 -13
-63 -23 -63 -21 0 2 -36 -11 -81 -28 -80 -32 -81 -32 -98 -83 -20 -60 -61
-113 -111 -142 -77 -46 31 -38 213 15 49 14 94 26 100 28 7 1 19 5 27 8 8 3
61 20 117 38 124 38 155 56 177 103 16 34 21 128 8 164 -6 17 -16 15 -107 -18z"/>
</g>
</svg>
